<?xml version="1.0" standalone="no"?>
<!DOCTYPE svg PUBLIC "-//W3C//DTD SVG 20010904//EN"
 "http://www.w3.org/TR/2001/REC-SVG-20010904/DTD/svg10.dtd">
<svg version="1.0" xmlns="http://www.w3.org/2000/svg"
 width="1500.000000pt" height="764.000000pt" viewBox="0 0 1500.000000 764.000000"
 preserveAspectRatio="xMidYMid meet">

<g transform="translate(0.000000,764.000000) scale(0.100000,-0.100000)"
fill="#000000" stroke="none">
<path d="M4517 5959 c-433 -42 -864 -230 -1208 -528 -452 -391 -716 -944 -744
-1558 l-6 -123 1536 0 c844 0 1535 2 1535 4 0 2 81 410 180 907 99 497 180
907 180 910 0 11 -134 93 -255 156 -373 193 -792 273 -1218 232z"/>
<path d="M11570 5851 c-84 -10 -208 -45 -268 -75 -125 -63 -251 -188 -303
-301 -38 -81 -78 -224 -87 -310 -10 -96 3 -327 22 -399 26 -95 76 -204 130
-285 107 -160 216 -255 681 -591 94 -67 207 -154 253 -193 210 -177 349 -398
403 -642 21 -94 18 -403 -4 -484 -74 -262 -270 -429 -560 -476 -117 -19 -192
-19 -301 0 -203 36 -334 119 -430 275 -71 115 -116 282 -116 431 l0 69 -70 0
c-81 0 -75 14 -59 -141 31 -308 142 -527 332 -653 124 -82 252 -116 467 -123
133 -4 168 -2 249 16 173 38 309 111 419 223 133 136 196 276 222 493 30 235
-34 545 -152 741 -139 232 -278 361 -755 704 -259 185 -371 290 -470 438 -45
69 -97 182 -114 252 -21 82 -18 337 5 420 44 163 83 235 174 322 114 109 219
148 417 155 154 6 243 -10 342 -59 82 -41 171 -126 208 -197 45 -90 76 -230
82 -378 l6 -133 63 0 64 0 0 123 c0 309 -84 518 -258 648 -74 54 -184 101
-277 118 -82 15 -237 21 -315 12z"/>
<path d="M7220 4780 l0 -1030 -149 0 -150 0 -5 53 c-3 28 -8 99 -10 157 -23
464 -239 954 -580 1322 -36 38 -66 66 -66 62 -1 -5 70 -366 157 -801 l158
-793 167 0 167 0 3 -62 3 -63 152 -3 153 -3 2 -812 3 -812 68 -3 67 -3 0 815
0 814 363 5 c415 5 455 10 603 83 157 77 271 201 363 395 180 379 176 869 -12
1244 -58 116 -97 173 -159 233 -132 127 -287 195 -508 222 -46 5 -243 10 -437
10 l-353 0 0 -1030z m705 890 c163 -12 229 -28 345 -83 126 -59 211 -147 278
-287 88 -184 129 -342 139 -534 16 -306 -102 -663 -276 -836 -77 -76 -157
-122 -268 -151 -70 -19 -112 -22 -430 -26 l-353 -5 0 966 0 966 213 0 c116 0
275 -5 352 -10z"/>
<path d="M9010 3900 l0 -1910 65 0 65 0 2 813 3 812 694 3 c553 2 696 0 703
-10 4 -7 8 -374 8 -815 l0 -803 65 0 65 0 0 1910 0 1910 -65 0 -65 0 0 -1019
c0 -561 -3 -1026 -6 -1035 -6 -14 -77 -16 -705 -16 l-699 0 0 1035 0 1035 -65
0 -65 0 0 -1910z"/>
<path d="M6101 5319 c-1 -3 -14 -73 -30 -155 -16 -82 -55 -279 -86 -439 -31
-159 -85 -438 -121 -619 -35 -181 -64 -335 -64 -343 0 -10 58 -13 301 -13
l301 0 -5 23 c-3 12 -69 362 -147 777 -131 702 -147 785 -149 769z"/>
<path d="M2574 3563 c82 -696 471 -1295 1069 -1647 265 -156 552 -250 877
-287 141 -16 441 -6 583 20 60 10 109 21 111 23 1 2 358 1790 383 1923 l5 25
-1517 0 -1517 0 6 -57z"/>
<path d="M5766 3598 c-3 -13 -21 -111 -41 -218 -51 -270 -139 -718 -240 -1215
-47 -231 -84 -425 -83 -432 2 -8 37 1 107 28 421 159 785 447 1033 819 67 99
70 107 65 150 -7 54 -58 299 -91 430 -13 52 -39 177 -58 277 l-33 183 -327 0
-328 0 -4 -22z"/>
<path d="M6610 3603 c0 -19 118 -618 126 -643 8 -22 15 -5 63 137 53 157 77
268 106 481 l5 42 -150 0 c-136 0 -150 -2 -150 -17z"/>
<path d="M7250 1323 c0 -10 4 -14 8 -8 4 6 11 13 16 18 5 4 2 7 -7 7 -10 0
-17 -8 -17 -17z"/>
<path d="M7258 1293 c7 -3 16 -2 19 1 4 3 -2 6 -13 5 -11 0 -14 -3 -6 -6z"/>
</g>
</svg>
